<?xml version="1.0" standalone="no"?>
<!DOCTYPE svg PUBLIC "-//W3C//DTD SVG 20010904//EN"
 "http://www.w3.org/TR/2001/REC-SVG-20010904/DTD/svg10.dtd">
<svg version="1.0" xmlns="http://www.w3.org/2000/svg"
 width="192.000000pt" height="192.000000pt" viewBox="0 0 192.000000 192.000000"
 preserveAspectRatio="xMidYMid meet">
<metadata>
Created by potrace 1.14, written by Peter Selinger 2001-2017
</metadata>
<g transform="translate(0.000000,192.000000) scale(0.100000,-0.100000)"
fill="#000000" stroke="none">
<path d="M420 1627 c0 -7 7 -22 15 -33 8 -10 15 -28 15 -38 0 -11 -75 -131
-166 -268 -91 -136 -164 -251 -162 -256 2 -4 76 -116 165 -249 90 -134 163
-251 163 -260 0 -10 -7 -27 -15 -37 -35 -47 -45 -46 471 -46 267 0 484 3 482
8 -2 4 -12 24 -23 45 l-19 37 171 253 170 252 -164 245 c-91 135 -167 251
-170 258 -3 8 4 31 15 51 12 21 19 41 15 45 -3 3 -222 6 -485 6 -387 0 -478
-2 -478 -13z m814 -66 c3 -5 -70 -122 -163 -260 -125 -187 -171 -248 -179
-239 -5 7 -72 105 -147 218 -76 113 -146 216 -156 229 -11 13 -19 32 -19 42 0
18 15 19 329 19 182 0 332 -4 335 -9z m-570 -309 c75 -112 136 -208 136 -213
0 -5 -64 -106 -143 -224 l-144 -215 -141 213 c-78 117 -142 219 -142 225 0 22
281 435 290 426 5 -5 69 -101 144 -212z m774 7 c74 -111 136 -207 139 -215 6
-16 -271 -434 -288 -434 -5 0 -242 350 -283 417 -8 15 270 433 288 433 6 0 71
-90 144 -201z m-361 -490 c134 -201 164 -252 153 -259 -19 -12 -630 -13 -649
-1 -7 5 -12 13 -10 19 8 22 324 491 331 492 5 0 83 -113 175 -251z"/>
</g>
</svg>
